<svg xmlns="http://www.w3.org/2000/svg" viewBox="0 0 666.09 104.44"><defs><style>.cls-1{fill:#2f4050;}</style></defs><title>자산 1</title><g id="레이어_2" data-name="레이어 2"><g id="Layer_1" data-name="Layer 1"><path class="cls-1" d="M456.93,68.57a10,10,0,0,0,0-1.63,35.25,35.25,0,1,0-11.18,27.43,6.49,6.49,0,0,0-3.84-11.72,6.42,6.42,0,0,0-4.39,1.73l0,0a22.29,22.29,0,1,1,5.61-22.25H419.44a6.49,6.49,0,0,0,0,13h30.2a7.35,7.35,0,0,0,7.29-6.49Z"/><path class="cls-1" d="M267.15,33.26a35.14,35.14,0,0,0-22.31,8V6.49a6.49,6.49,0,1,0-13,0v61.4a1.62,1.62,0,0,0,0,.22c0,.15,0,.29,0,.44a35.29,35.29,0,1,0,35.28-35.29Zm0,57.59a22.31,22.31,0,1,1,22.31-22.3A22.33,22.33,0,0,1,267.15,90.85Z"/><path class="cls-1" d="M492.22,0a6.49,6.49,0,0,0-6.49,6.49V97.38a6.49,6.49,0,1,0,13,0V6.49A6.5,6.5,0,0,0,492.22,0Z"/><path class="cls-1" d="M141.37,33.3a6.5,6.5,0,0,0-6.49,6.49v1.44a35.29,35.29,0,1,0,0,54.63v1.48a6.49,6.49,0,0,0,13,0V39.79A6.49,6.49,0,0,0,141.37,33.3ZM112.58,90.85a22.31,22.31,0,1,1,22.3-22.3A22.32,22.32,0,0,1,112.58,90.85Z"/><path class="cls-1" d="M189.66,33.26a35.33,35.33,0,0,0-35.28,35.29h0c0,.2,0,.42,0,.63V97.34a6.49,6.49,0,0,0,13,0V69.18a4.35,4.35,0,0,0,0-.63h0a22.31,22.31,0,1,1,44.61,0h0c0,.2,0,.42,0,.63V97.34a6.49,6.49,0,1,0,13,0V69.18c0-.21,0-.43,0-.63h0A35.33,35.33,0,0,0,189.66,33.26Z"/><path class="cls-1" d="M542.25,33.26A35.33,35.33,0,0,0,507,68.55h0c0,.2,0,.42,0,.63V97.34a6.49,6.49,0,1,0,13,0V69.18c0-.21,0-.43,0-.63h0a22.31,22.31,0,1,1,44.62,0h0c0,.2,0,.42,0,.63V97.34a6.49,6.49,0,1,0,13,0V69.18c0-.21,0-.43,0-.63h0A35.32,35.32,0,0,0,542.25,33.26Z"/><path class="cls-1" d="M620.61,46.24a22.31,22.31,0,1,0,15.74,38.09l0,0a6.48,6.48,0,1,1,8.23,10,35.28,35.28,0,1,1-24-61.11Z"/><path class="cls-1" d="M620.61,46.24a22.31,22.31,0,1,0,15.74,38.09l0,0a6.48,6.48,0,1,1,8.23,10,35.28,35.28,0,1,1-24-61.11Z"/><path class="cls-1" d="M620.61,90.85a22.31,22.31,0,1,1,15.74-38.09l0,0a6.49,6.49,0,1,0,8.23-10,35.28,35.28,0,1,0-24,61.11Z"/><path class="cls-1" d="M64.08,0a6.5,6.5,0,0,0-6.49,6.49V41.23a35.27,35.27,0,1,0,13,27.32c0-.15,0-.29,0-.44s0-.15,0-.22V6.49A6.49,6.49,0,0,0,64.08,0ZM35.29,90.85a22.31,22.31,0,1,1,22.3-22.3A22.33,22.33,0,0,1,35.29,90.85Z"/><path class="cls-1" d="M659.6,91.47A6.49,6.49,0,1,0,666.09,98,6.49,6.49,0,0,0,659.6,91.47Z"/><path class="cls-1" d="M379.63,68.57a10,10,0,0,0,0-1.63,35.26,35.26,0,1,0-11.19,27.43,6.48,6.48,0,1,0-8.23-10l0,0a22.29,22.29,0,1,1,5.61-22.25H342.14a6.49,6.49,0,0,0,0,13h30.19a7.36,7.36,0,0,0,7.3-6.49Z"/></g></g></svg>